<?xml version="1.0" encoding="UTF-8" standalone="no"?>
<svg
   width="34.883999"
   height="33.735661"
   viewBox="0 0 34.883999 33.735661"
   fill="none"
   version="1.1"
   id="svg94"
   sodipodi:docname="framework_logo.svg"
   inkscape:version="1.2.2 (b0a8486541, 2022-12-01)"
   inkscape:export-filename="framework_logo.png"
   inkscape:export-xdpi="96"
   inkscape:export-ydpi="96"
   xmlns:inkscape="http://www.inkscape.org/namespaces/inkscape"
   xmlns:sodipodi="http://sodipodi.sourceforge.net/DTD/sodipodi-0.dtd"
   xmlns="http://www.w3.org/2000/svg"
   xmlns:svg="http://www.w3.org/2000/svg">
  <defs
     id="defs98" />
  <sodipodi:namedview
     id="namedview96"
     pagecolor="#505050"
     bordercolor="#eeeeee"
     borderopacity="1"
     inkscape:showpageshadow="0"
     inkscape:pageopacity="0"
     inkscape:pagecheckerboard="0"
     inkscape:deskcolor="#505050"
     showgrid="false"
     inkscape:zoom="12.900529"
     inkscape:cx="11.084817"
     inkscape:cy="8.4105078"
     inkscape:window-width="2256"
     inkscape:window-height="1423"
     inkscape:window-x="0"
     inkscape:window-y="0"
     inkscape:window-maximized="1"
     inkscape:current-layer="svg94" />
  <path
     d="m 31.835799,13.098159 -2.2831,-1.353948 c -1.0689,-0.6361 -1.7296,-1.8087999 -1.7296,-3.0774599 v -2.70788 c 0,-0.55437 -0.2456,-1.07675 -0.6642,-1.425009 -1.2453,-1.0341112 -2.6463,-1.8727751 -4.1614,-2.4733421 -0.5051,-0.1990039 -1.0689,-0.1599138 -1.5359,0.117271 l -2.2865,1.3574899 c -1.0689,0.6361108 -2.3869,0.6361108 -3.4592,0 L 13.4293,2.177791 C 12.9623,1.9006062 12.395,1.8579624 11.89343,2.06052 10.37484,2.661087 8.97732,3.4997509 7.7354602,4.5303121 c -0.41856,0.348249 -0.66416,0.870639 -0.66416,1.425009 v 2.70788 c 0,1.26865 -0.65725,2.4413599 -1.7296098,3.0774599 l -2.2830715,1.353898 c -0.466995,0.2772 -0.785242,0.757 -0.868263,1.3042 -0.127991,0.8067 -0.190256,1.6312 -0.190256,2.4698 0,0.8387 0.06227,1.6631 0.186797,2.4662 0.08302,0.5473 0.401267,1.0306 0.868263,1.3078 l 2.2830705,1.3539 c 1.0688998,0.6361 1.7296098,1.8088 1.7296098,3.0775 v 2.7079 c 0,0.5543 0.2456,1.0767 0.66416,1.425 1.2418598,1.0305 2.6428398,1.8692 4.1579698,2.4698 0.50503,0.199 1.06893,0.1599 1.53593,-0.1173 l 2.286499,-1.3575 c 1.0689,-0.6361 2.3868,-0.6361 3.4592,0 l 2.2865,1.3575 c 0.467,0.2772 1.0343,0.3163 1.5359,0.1173 1.5152,-0.6006 2.9161,-1.4393 4.158,-2.4698 0.4186,-0.3483 0.6642,-0.8707 0.6642,-1.425 v -2.7079 c 0,-1.2687 0.6607,-2.4414 1.7296,-3.0775 l 2.283,-1.3539 c 0.467,-0.2772 0.7853,-0.7569 0.8683,-1.3078 0.1211,-0.8031 0.1868,-1.6275 0.1868,-2.4662 0,-0.8386 -0.0623,-1.6631 -0.1868,-2.4662 -0.0796,-0.5473 -0.3944,-1.027 -0.8613,-1.3042 z m -14.3903,13.3049 c -5.123099,0 -9.277639,-4.268 -9.277639,-9.5309 0,-5.262988 4.15454,-9.5309179 9.277639,-9.5309179 5.123,0 9.2775,4.2679299 9.2775,9.5309179 0,5.2629 -4.1545,9.5309 -9.2775,9.5309 z"
     fill="#ffffff"
     id="path92" />
</svg>
